<svg width="300" height="45" viewBox="0 0 300 45" fill="none" xmlns="http://www.w3.org/2000/svg">
<path d="M8.08237 38.4696C6.56721 37.6977 5.32029 36.4862 4.50482 34.9936C3.64665 33.3616 3.2214 31.5366 3.26976 29.6932V15.8388C3.22242 13.9994 3.64767 12.1787 4.50482 10.5507C5.32103 9.06178 6.56808 7.85444 8.08237 7.08711C9.7647 6.24319 11.6267 5.82061 13.5084 5.85569C15.3952 5.81154 17.2645 6.22708 18.955 7.06651C20.484 7.83454 21.7432 9.04974 22.5655 10.5507C23.4261 12.1848 23.8514 14.0131 23.8006 15.8594V29.6932C23.8489 31.5366 23.4237 33.3616 22.5655 34.9936C21.7503 36.485 20.5051 37.6962 18.9921 38.4696C17.2893 39.3116 15.4071 39.7258 13.5084 39.6763C11.629 39.7171 9.76751 39.3031 8.08237 38.4696ZM15.7562 33.2021C16.3846 32.8624 16.8934 32.3376 17.2136 31.6989C17.5621 30.9753 17.7329 30.179 17.7117 29.3761V16.1353C17.7292 15.3433 17.5585 14.5585 17.2136 13.8455C16.8894 13.2051 16.3802 12.677 15.7521 12.3299C15.0648 11.9549 14.291 11.7674 13.5084 11.7862C12.7346 11.7671 11.9694 11.9518 11.2894 12.3216C10.6702 12.6774 10.1692 13.2072 9.84851 13.8455C9.49231 14.5596 9.31566 15.3498 9.3339 16.1477V29.3761C9.3138 30.1807 9.49045 30.9781 9.84851 31.6989C10.1717 32.3354 10.6797 32.8594 11.3059 33.2021C11.9831 33.5628 12.7413 33.7443 13.5084 33.7293C14.2905 33.7498 15.0647 33.5683 15.7562 33.2021Z" fill="#231F20"/>
<path d="M28.6953 6.17695H34.5742V39.3344H28.6953V6.17695ZM31.2107 19.9408H39.9261C40.445 19.953 40.9574 19.8234 41.4082 19.566C41.8307 19.3179 42.1681 18.9474 42.3757 18.5034C42.6063 18.0045 42.719 17.4591 42.705 16.9096V15.0398C42.7191 14.465 42.6067 13.8942 42.3757 13.3677C42.1783 12.9125 41.8446 12.5297 41.4205 12.2722C40.9663 12.0122 40.4492 11.8825 39.9261 11.8975H31.2107V6.17695H39.9961C41.6264 6.13724 43.2417 6.49634 44.7017 7.22303C46.0028 7.8984 47.0702 8.95043 47.7646 10.2418C48.5052 11.6746 48.8733 13.2708 48.835 14.8833V16.819C48.8754 18.4514 48.5075 20.0682 47.7646 21.5222C47.0721 22.8275 46.0055 23.896 44.7017 24.5905C43.2465 25.3331 41.6292 25.7011 39.9961 25.6613H31.2107V19.9408ZM36.9743 24.6358L42.8944 23.5856L49.9795 39.3344H43.2073L36.9743 24.6358Z" fill="#231F20"/>
<path d="M61.1814 6.19751H65.146L75.4176 39.3344H69.267L63.1617 17.1814L57.0564 39.3344H50.9058L61.1814 6.19751ZM56.6241 28.4618H69.8392V34.1164H56.6241V28.4618Z" fill="#231F20"/>
<path d="M81.1361 38.4572C79.6598 37.6547 78.4666 36.4165 77.7191 34.9112C76.8837 33.1565 76.4773 31.2282 76.5334 29.2854V16.2712C76.4817 14.3235 76.8923 12.3913 77.7314 10.633C78.4773 9.12349 79.6706 7.88088 81.1484 7.07472C82.8084 6.21744 84.6575 5.79251 86.5251 5.83919C88.3425 5.78054 90.1429 6.20699 91.7411 7.07472C93.199 7.94511 94.35 9.24771 95.0346 10.8019C95.8168 12.4657 96.2834 14.573 96.4343 17.1237H90.3167C90.2646 16.1078 90.0606 15.1055 89.7115 14.1502C89.4641 13.4613 89.0204 12.86 88.4353 12.4204C87.8687 12.0331 87.1946 11.8343 86.5086 11.8521C85.789 11.8342 85.078 12.0106 84.4502 12.3628C83.8612 12.7187 83.3968 13.248 83.1204 13.8784C82.7901 14.6318 82.6298 15.4488 82.6511 16.2712V29.2854C82.6274 30.1081 82.7877 30.9256 83.1204 31.6782C83.4021 32.2987 83.8659 32.8187 84.4502 33.1691C85.0776 33.5225 85.7887 33.7003 86.5086 33.6839C87.1979 33.7031 87.8755 33.5027 88.4435 33.1115C89.0268 32.6649 89.4698 32.0603 89.7197 31.3694C90.0757 30.4165 90.2758 29.4124 90.3126 28.3959H96.422C96.2546 30.9493 95.7798 33.0565 94.9976 34.7176C94.308 36.2633 93.1577 37.558 91.7041 38.4242C90.1107 39.293 88.314 39.7196 86.5004 39.6598C84.6398 39.7145 82.7953 39.301 81.1361 38.4572Z" fill="#231F20"/>
<path d="M100.613 6.19751H106.55V39.3344H100.613V6.19751ZM103.141 33.6139H118.814V39.3344H103.141V33.6139Z" fill="#231F20"/>
<path d="M122.572 6.19751H128.496V39.3344H122.572V6.19751ZM124.943 6.19751H140.999V11.9633H124.943V6.19751ZM124.943 20.0066H139.18V25.7271H124.943V20.0066ZM124.943 33.5686H140.999V39.3344H124.943V33.5686Z" fill="#231F20"/>
<path d="M153.297 36.3922C152.237 35.8244 151.382 34.9391 150.85 33.8604C150.253 32.6103 149.963 31.2358 150.004 29.8511V23.4972C149.964 22.1237 150.254 20.7606 150.85 19.5226C151.387 18.4544 152.242 17.5794 153.297 17.0185C154.507 16.4566 155.826 16.1655 157.16 16.1655C158.494 16.1655 159.812 16.4566 161.022 17.0185C162.081 17.5771 162.939 18.4525 163.476 19.5226C164.064 20.7633 164.351 22.1248 164.315 23.4972V29.9065C164.352 31.279 164.065 32.6409 163.476 33.8812C162.939 34.9532 162.081 35.831 161.022 36.3922C159.816 36.9677 158.496 37.2663 157.16 37.2663C155.823 37.2663 154.504 36.9677 153.297 36.3922ZM159.947 32.9864C160.661 32.109 161.018 30.9941 160.945 29.8649V23.5388C161.016 22.4205 160.659 21.3171 159.947 20.4521C159.589 20.0824 159.157 19.7934 158.679 19.6044C158.2 19.4154 157.687 19.3308 157.173 19.3561C156.659 19.3257 156.145 19.408 155.666 19.5973C155.186 19.7866 154.755 20.0783 154.4 20.4521C153.701 21.3231 153.352 22.424 153.422 23.5388V29.8649C153.349 30.992 153.7 32.1057 154.407 32.9864C154.761 33.3613 155.192 33.6544 155.672 33.8449C156.151 34.0354 156.666 34.1188 157.18 34.0893C157.691 34.1125 158.2 34.0268 158.675 33.8378C159.149 33.6489 159.578 33.361 159.933 32.9933L159.947 32.9864Z" fill="url(#paint0_linear)"/>
<path d="M167.553 16.5052H177.386V19.4602H167.553V16.5052ZM169.682 13.7306C169.682 11.941 170.098 10.5953 170.944 9.67969C171.434 9.19604 172.022 8.82221 172.667 8.58303C173.313 8.34384 174.002 8.24477 174.688 8.29238H177.386V11.4693H174.883C174.622 11.449 174.36 11.4913 174.119 11.5926C173.877 11.694 173.664 11.8514 173.496 12.052C173.169 12.5353 173.01 13.1132 173.045 13.6959V36.968H169.675L169.682 13.7306Z" fill="url(#paint1_linear)"/>
<path d="M187.618 5.52965H191.544V39.3353H187.618V5.52965ZM190.407 35.6632H198.042C199.872 35.6632 201.22 35.2872 202.087 34.5351C202.953 33.783 203.388 32.7252 203.39 31.3616V28.7155C203.414 27.7794 203.228 26.8498 202.844 25.9958C202.499 25.2565 201.924 24.6489 201.205 24.2637C200.37 23.8428 199.443 23.6384 198.509 23.6693H190.407V20.0132H198.518C199.975 20.0132 201.079 19.6297 201.831 18.8627C202.583 18.0957 202.959 16.9676 202.959 15.4783V13.4106C202.959 12.0129 202.555 10.9626 201.748 10.2595C200.941 9.55641 199.763 9.2038 198.215 9.20167H190.407V5.52965H198.566C200.147 5.48055 201.717 5.79889 203.154 6.45964C204.347 7.02791 205.334 7.95389 205.978 9.10899C206.644 10.3764 206.974 11.7937 206.936 13.2252V15.2929C206.945 16.3231 206.756 17.3454 206.377 18.3034C206.018 19.2283 205.428 20.0451 204.662 20.6749C203.895 21.3047 202.98 21.7262 202.004 21.8988C203.057 22.0433 204.051 22.4732 204.879 23.1419C205.69 23.8064 206.325 24.6603 206.728 25.6283C207.166 26.6942 207.384 27.838 207.367 28.9903V31.5246C207.401 32.9729 207.056 34.4048 206.367 35.6792C205.706 36.8523 204.703 37.7964 203.492 38.3861C202.111 39.0501 200.593 39.3786 199.061 39.3449H190.407V35.6632Z" fill="#231F20"/>
<path d="M212.952 5.52963H216.926V39.3353H212.952V5.52963ZM215.322 35.5929H230.826V39.3353H215.322V35.5929Z" fill="#231F20"/>
<path d="M243.515 5.52963H247.559L257.692 39.3353H253.37L245.537 10.7133L237.704 39.3353H233.381L243.515 5.52963ZM238.589 27.827H252.859V31.5246H238.589V27.827Z" fill="#231F20"/>
<path d="M266.014 39.3353H262.04V5.52963H266.014V39.3353Z" fill="#231F20"/>
<path d="M272.797 5.50407H276.771V39.3353H272.797V5.50407ZM274.867 21.2915H283.744C284.645 21.3131 285.537 21.1053 286.335 20.6875C287.067 20.2881 287.657 19.6704 288.022 18.9202C288.426 18.0709 288.632 17.1411 288.626 16.2006V14.4556C288.647 13.5003 288.444 12.5533 288.032 11.6912C287.666 10.9305 287.079 10.2979 286.348 9.87598C285.552 9.43643 284.654 9.21588 283.744 9.23681H274.87V5.50407H283.495C285.182 5.46226 286.855 5.82151 288.377 6.5523C289.717 7.21388 290.823 8.26854 291.549 9.57557C292.311 11.0045 292.691 12.6064 292.651 14.2255V16.2006C292.691 17.8366 292.307 19.4551 291.536 20.8984C290.809 22.2149 289.704 23.2835 288.364 23.9665C286.851 24.712 285.181 25.0793 283.495 25.0371H274.87L274.867 21.2915ZM283.07 23.9888L286.811 22.9214L293.839 39.3353H289.255L283.07 23.9888Z" fill="#231F20"/>
<defs>
<linearGradient id="paint0_linear" x1="135.207" y1="22.7827" x2="182.538" y2="22.7827" gradientUnits="userSpaceOnUse">
<stop stop-color="#458AEB"/>
<stop offset="0.41" stop-color="#6B59A2"/>
<stop offset="0.57" stop-color="#88488B"/>
<stop offset="1" stop-color="#FD2E2F"/>
</linearGradient>
<linearGradient id="paint1_linear" x1="135.207" y1="22.7828" x2="182.538" y2="22.7828" gradientUnits="userSpaceOnUse">
<stop stop-color="#458AEB"/>
<stop offset="0.41" stop-color="#6C5AA4"/>
<stop offset="0.692708" stop-color="#8E4F92"/>
<stop offset="1" stop-color="#FD2E30"/>
</linearGradient>
</defs>
</svg>
