<svg xmlns="http://www.w3.org/2000/svg" viewBox="14 148 139.29999999999998 238.80000000000007"><path d="M122.7 385.9l-19.7-2.7-10-1.5-.5-1.8v-9.4l-.3-3.2-2.6-4.2-.8-2.3-3.9-4.2-2.9-4.7-2.7-.2-3.2-.8-.3-1 1.5-.6-.6-3.2-1.5-2.1-4.8-.8-3.9-2.1-1.1-2.3-2.6-4.8-2.9-3.1H57l-3.9-2.1-4.5-1.8-4.2-.5-2.4-2.7.5-1.9 1.8-7.1.8-1.9v-2.4l-1.6-1-.5-2.9-1.5-2.6-3.4-5.8-1.3-3.1-1.5-4.7-1.6-5.3-3.2-4.4-.5-2.9.8-3.9h1.1l2.1-1.6 1.1-3.6-1-2.7-2.7-.5-1.9-2.6-2.1-3.7-.2-8.2.6-1.9.6-2.3.5-2.4-5.7-6.3V236l.3-.5.3-3.2-1.3-4-2.3-4.8-2.7-4.5-1.8-3.9 1-3.7.6-5.8 1.8-3.1.3-6.5-1.1-3.6-1.6-4.2L14 184l.8-3.2 1.5-4.2 1.8-.8.3-1.1 3.1-2.6 5.2-11.8.2-7.4 1.69-4.9 38.69 11.8 25.6 6.6-8 31.3-8.67 33.1L88.84 250 131 312.3l17.1 26.1-.4 3.1 2.8 5.2 1.1 5.4 1 1.5.7.6-.2 1.4-1.4 1-3.4 1.6-1.9 2.1-1.7 3.9-.5 4.7-2.6 2.5-2.3 1.1-.1 6.2-.6 1.9 1 1.7 3 .3-.4 1.6-1.4 2-3.9.6zM48.8 337l1.3 1.5-.2 1.3-3.2-.1-.6-1.2-.6-1.5zm1.9 0l1.2-.6 3.6 2.1 3.1 1.2-.9.6-4.5-.2-1.6-1.6zm20.7 19.8l1.8 2.3.8 1 1.5.6.6-1.5-1-1.8-2.7-2-1.1.2v1.2zm-1.4 8.7l1.8 3.2 1.2 1.9-1.5.2-1.3-1.2s-.7-1.5-.7-1.9v-2.2z"></path></svg>