<svg xmlns="http://www.w3.org/2000/svg" viewBox="233.1 510.1 113.50000000000003 72.69999999999993"><path d="M233.1 519.3l1.9-3.6 2.3-.3.3.8-2.1 3.1zm10.2-3.7l6.1 2.6 2.1-.3 1.6-3.9-.6-3.4-4.2-.5-4 1.8zm30.7 10l3.7 5.5 2.4-.3 1.1-.5 1.5 1.3 3.7-.2 1-1.5-2.9-1.8-1.9-3.7-2.1-3.6-5.8 2.9zm20.2 8.9l1.3-1.9 4.7 1 .6-.5 6.1.6-.3 1.3-2.6 1.5-4.4-.3zm5.3 5.2l1.9 3.9 3.1-1.1.3-1.6-1.6-2.1-3.7-.3zm7-1.2l2.3-2.9 4.7 2.4 4.4 1.1 4.4 2.7v1.9l-3.6 1.8-4.8 1-2.4-1.5zm16.6 15.6l1.6-1.3 3.4 1.6 7.6 3.6 3.4 2.1 1.6 2.4 1.9 4.4 4 2.6-.3 1.3-3.9 3.2-4.2 1.5-1.5-.6-3.1 1.8-2.4 3.2-2.3 2.9-1.8-.2-3.6-2.6-.3-4.5.6-2.4-1.6-5.7-2.1-1.8-.2-2.6 2.3-1 2.1-3.1.5-1-1.6-1.8z"></path></svg>