<svg xmlns="http://www.w3.org/2000/svg" viewBox="471.09999999999974 180.30000000000004 103.90000000000015 68.29999999999998"><path d="M556.8 183.6l2.1 2.1.3.7-2 3 .3 4 2.6 4.1 3.1 1.6 2.4.3.9 1.8.2 2.4 2.5 1 .9 1.1.5 1.6 3.8 3.3.6 1.9-.7 3-1.7 3.7-.6 2.4-2.1 1.6-1.6.5-5.7 1.5-1.6 4.8.8 1.8 1.7 1.5-.2 3.5-1.9 1.4-.7 1.8v2.4l-1.4.4-1.7 1.4-.5 1.7.4 1.7-1.3 1-2.3-2.7-1.4-2.8-8.3.8-10 .6-49.2 1.2-1.6-4.3-.4-6.7-1.4-4.2-.7-5.2-2.2-3.7-1-4.6-2.7-7.8-1.1-5.6-1.4-1.9-1.3-2.9 1.7-3.8 1.2-6.1-2.7-2.2-.3-2.4.7-2.4 1.8-.3 61.1-.6 21.2-.7z"></path></svg>