<svg xmlns="http://www.w3.org/2000/svg" viewBox="596.1000000000006 267.7999999999999 125.39999999999952 64.19999999999987"><path d="M607.2 331.8l12.6-.7.1-4.1h4.3l30.4-3.2 45.1-4.3 5.6-3.6 3.9-2.1.1-1.9 6-7.8 4.1-3.6 2.1-2.4-3.3-2-2.5-2.7-3-3.8-.5-2.2-2.6-1.4-.9-1.9-.2-6.1-2.6-2-1.9-1.1-.5-2.3-1.3.2-2 1.2-2.5 2.7-1.9-1.7-2.5-.5-2.4 1.4h-2.3l-1.8-2-5.6-.1-1.8-4.5-2.9-1.5-2.1.8-4.2.2-.5 2.1 1.2 1.5.3 2.1-2.8 2-3.8 1.8-2.6.4-.5 4.5-4.9 3.6-2.6 3.7.2 2.2-.9 2.3-4.5-.1-1.3-1.3-3.9 2.2.2 3.3-2.4.6-.8-1.4-1.7-1.2-2.7 1.1-1.8 3.5-2.2-1-1.4-1.6-3.7.4-5.6 1-2.8 1.3-1.2 3.4-1 1 1.5 3.7-4.2 1.4-1.9 1.4-.4 2.2 1.2 2.4v2.2l-1.6.4-6.1-2.5-2.3.9-2 1.4-.8 1.8 1.7 2.4-.9 1.8-.1 3.3-2.4 1.3-2.1 1.7z"></path></svg>