<svg width="187" height="146" viewBox="0 0 187 146" fill="none" xmlns="http://www.w3.org/2000/svg">
<g clip-path="url(#clip0)">
<path d="M6.51411 45.5849C4.47049 44.5061 2.78867 42.8127 1.68877 40.7265C0.531286 38.4454 -0.0422759 35.8946 0.0229462 33.318V13.9534C-0.0409042 11.3825 0.532661 8.83761 1.68877 6.56219C2.78966 4.48108 4.47167 2.79356 6.51411 1.72104C8.78321 0.541487 11.2947 -0.0491613 13.8326 -0.000125783C16.3775 -0.0618446 18.8988 0.518974 21.1789 1.69226C23.2412 2.76575 24.9397 4.46426 26.0487 6.56219C27.2094 8.84617 27.7831 11.4016 27.7145 13.9822V33.318C27.7797 35.8946 27.2062 38.4454 26.0487 40.7265C24.9492 42.811 23.2697 44.504 21.2289 45.5849C18.9323 46.7618 16.3936 47.3407 13.8326 47.2716C11.2977 47.3286 8.787 46.75 6.51411 45.5849ZM16.8644 38.2225C17.712 37.7476 18.3982 37.0141 18.8301 36.1214C19.3002 35.1101 19.5305 33.997 19.502 32.8748V14.3679C19.5256 13.2609 19.2953 12.164 18.8301 11.1673C18.3928 10.2722 17.706 9.53417 16.8589 9.04896C15.9319 8.5249 14.8882 8.26285 13.8326 8.28911C12.789 8.26242 11.7569 8.52048 10.8397 9.03745C10.0046 9.53465 9.32875 10.2753 8.89624 11.1673C8.41581 12.1654 8.17756 13.27 8.20215 14.3852V32.8748C8.17504 33.9994 8.41331 35.1139 8.89624 36.1214C9.33221 37.0111 10.0174 37.7435 10.8619 38.2225C11.7754 38.7266 12.798 38.9803 13.8326 38.9593C14.8875 38.9881 15.9318 38.7343 16.8644 38.2225Z" fill="#231F20"/>
<path d="M34.3162 0.449035H42.2455V46.7939H34.3162V0.449035ZM37.7089 19.687H49.4641C50.164 19.7041 50.8551 19.523 51.4631 19.1631C52.033 18.8164 52.488 18.2985 52.768 17.678C53.0791 16.9806 53.2311 16.2183 53.2122 15.4503V12.8368C53.2312 12.0335 53.0795 11.2356 52.768 10.4997C52.5018 9.8634 52.0517 9.32839 51.4797 8.96853C50.8671 8.60504 50.1696 8.42378 49.4641 8.4447H37.7089V0.449035H49.5585C51.7573 0.393538 53.936 0.895449 55.9053 1.91116C57.6602 2.85515 59.0999 4.32559 60.0365 6.13062C61.0354 8.13321 61.5319 10.3643 61.4802 12.6181V15.3236C61.5347 17.6054 61.0385 19.865 60.0365 21.8974C59.1025 23.7219 57.6639 25.2153 55.9053 26.186C53.9425 27.224 51.7612 27.7384 49.5585 27.6826H37.7089V19.687ZM45.4827 26.2493L53.4676 24.7814L63.0239 46.7939H53.8896L45.4827 26.2493Z" fill="#231F20"/>
<path d="M78.133 0.477783H83.4803L97.3344 46.7939H89.0386L80.8039 15.8301L72.5691 46.7939H64.2733L78.133 0.477783ZM71.9861 31.597H89.8104V39.5005H71.9861V31.597Z" fill="#231F20"/>
<path d="M105.047 45.5678C103.056 44.4461 101.446 42.7155 100.438 40.6115C99.3114 38.1589 98.7633 35.4637 98.8389 32.7482V14.558C98.7692 11.8356 99.323 9.13497 100.455 6.67743C101.461 4.56749 103.07 2.83067 105.064 1.70388C107.302 0.505653 109.797 -0.0882794 112.315 -0.02304C114.767 -0.105017 117.195 0.491036 119.351 1.70388C121.317 2.92045 122.87 4.74111 123.793 6.91344C124.848 9.23903 125.477 12.1844 125.681 15.7495H117.43C117.359 14.3297 117.084 12.9287 116.613 11.5934C116.28 10.6305 115.681 9.79005 114.892 9.17571C114.128 8.63437 113.218 8.35641 112.293 8.38133C111.323 8.35635 110.364 8.60293 109.517 9.09512C108.723 9.59252 108.096 10.3325 107.723 11.2135C107.278 12.2665 107.062 13.4085 107.09 14.558V32.7482C107.058 33.898 107.275 35.0407 107.723 36.0927C108.103 36.96 108.729 37.6868 109.517 38.1765C110.363 38.6705 111.322 38.919 112.293 38.8961C113.223 38.9229 114.137 38.6427 114.903 38.0959C115.69 37.4718 116.287 36.6267 116.624 35.661C117.104 34.3291 117.374 32.9258 117.424 31.5049H125.664C125.438 35.0738 124.798 38.0192 123.743 40.341C122.813 42.5014 121.261 44.3109 119.301 45.5217C117.152 46.736 114.728 47.3323 112.282 47.2486C109.773 47.3252 107.285 46.7472 105.047 45.5678Z" fill="#231F20"/>
<path d="M131.317 0.477783H139.324V46.7939H131.317V0.477783ZM134.727 38.7983H155.866V46.7939H134.727V38.7983Z" fill="#231F20"/>
<path d="M160.936 0.477783H168.926V46.7939H160.936V0.477783ZM164.134 0.477783H185.79V8.53677H164.134V0.477783ZM164.134 19.779H183.335V27.7747H164.134V19.779ZM164.134 38.7349H185.79V46.7939H164.134V38.7349Z" fill="#231F20"/>
<path d="M2.37659 85.1086H9.20092V146H2.37659V85.1086ZM7.22414 139.386H20.4952C23.6751 139.386 26.0184 138.709 27.525 137.354C29.0316 135.999 29.7868 134.094 29.7905 131.638V126.871C29.8329 125.185 29.5083 123.511 28.841 121.973C28.2414 120.641 27.2421 119.547 25.9924 118.853C24.5414 118.095 22.9299 117.726 21.3059 117.782H7.22414V111.197H21.3226C23.8546 111.197 25.774 110.506 27.0808 109.124C28.3875 107.743 29.0409 105.711 29.0409 103.028V99.304C29.0409 96.7865 28.3394 94.8946 26.9364 93.6281C25.5334 92.3617 23.4863 91.7266 20.7951 91.7228H7.22414V85.1086H21.4059C24.153 85.0202 26.8824 85.5936 29.3796 86.7838C31.4542 87.8073 33.1698 89.4752 34.2882 91.5558C35.4467 93.8386 36.0203 96.3916 35.9541 98.9701V102.695C35.9704 104.55 35.6405 106.391 34.9823 108.117C34.3593 109.783 33.3324 111.254 32.0008 112.389C30.6692 113.523 29.0779 114.282 27.3806 114.593C29.2121 114.853 30.9402 115.628 32.3781 116.832C33.788 118.029 34.8921 119.567 35.5931 121.311C36.3546 123.231 36.7324 125.291 36.7037 127.367V131.931C36.7615 134.54 36.1625 137.119 34.9657 139.415C33.8154 141.528 32.0725 143.228 29.9682 144.29C27.5679 145.486 24.9291 146.078 22.2665 146.017H7.22414V139.386Z" fill="#231F20"/>
<path d="M46.4098 85.1086H53.3174V146H46.4098V85.1086ZM50.5299 139.259H77.4774V146H50.5299V139.259Z" fill="#231F20"/>
<path d="M99.533 85.1086H106.563L124.176 146H116.663L103.048 94.4455L89.4325 146H81.9197L99.533 85.1086ZM90.9707 125.271H115.775V131.931H90.9707V125.271Z" fill="#231F20"/>
<path d="M138.641 146H131.734V85.1086H138.641V146Z" fill="#231F20"/>
<path d="M150.43 85.0626H157.337V146H150.43V85.0626ZM154.028 113.499H169.459C171.025 113.538 172.574 113.164 173.962 112.411C175.235 111.692 176.26 110.579 176.894 109.228C177.596 107.698 177.955 106.023 177.944 104.329V101.186C177.981 99.4655 177.627 97.7599 176.911 96.207C176.275 94.8368 175.255 93.6973 173.984 92.9373C172.601 92.1456 171.039 91.7484 169.459 91.7861H154.033V85.0626H169.026C171.958 84.9873 174.866 85.6344 177.51 86.9507C179.84 88.1423 181.763 90.042 183.024 92.3962C184.349 94.97 185.009 97.8554 184.94 100.772V104.329C185.01 107.276 184.342 110.191 183.002 112.791C181.737 115.163 179.817 117.087 177.488 118.317C174.859 119.66 171.956 120.322 169.026 120.246H154.033L154.028 113.499ZM168.287 118.358L174.79 116.435L187.006 146H179.037L168.287 118.358Z" fill="#231F20"/>
<mask id="mask0" mask-type="alpha" maskUnits="userSpaceOnUse" x="0" y="53" width="188" height="25">
<rect x="0.558594" y="53.935" width="74.3353" height="23.9998" fill="#C4C4C4"/>
<rect x="113.872" y="53.9348" width="73.1285" height="23.9999" fill="#C4C4C4"/>
</mask>
<g mask="url(#mask0)">
<rect x="0.679688" y="55.7726" width="186.442" height="20.4323" fill="url(#paint0_linear)"/>
</g>
<path d="M85.4624 77.3662C84.6135 76.895 83.9282 76.1604 83.5023 75.2651C83.0243 74.2278 82.792 73.0871 82.8248 71.9379V66.6651C82.7926 65.5252 83.0249 64.394 83.5023 63.3666C83.9322 62.4802 84.6171 61.7541 85.4624 61.2886C86.4314 60.8223 87.4869 60.5807 88.5553 60.5807C89.6236 60.5807 90.6791 60.8223 91.6481 61.2886C92.4961 61.7522 93.1833 62.4787 93.6138 63.3666C94.0841 64.3963 94.3143 65.5262 94.2857 66.6651V71.984C94.3153 73.123 94.0851 74.2531 93.6138 75.2824C93.1836 76.1721 92.4965 76.9005 91.6481 77.3662C90.6821 77.8438 89.6255 78.0916 88.5553 78.0916C87.485 78.0916 86.4284 77.8438 85.4624 77.3662ZM90.7874 74.5398C91.3594 73.8117 91.645 72.8865 91.587 71.9494V66.6996C91.6435 65.7715 91.3577 64.8559 90.7874 64.138C90.501 63.8312 90.1547 63.5914 89.7716 63.4346C89.3886 63.2777 88.9777 63.2075 88.5664 63.2285C88.1546 63.2032 87.7425 63.2716 87.3588 63.4287C86.9752 63.5858 86.6292 63.8279 86.3453 64.138C85.7854 64.8609 85.5062 65.7744 85.5623 66.6996V71.9494C85.5034 72.8847 85.7847 73.809 86.3508 74.5398C86.6343 74.851 86.98 75.0942 87.3637 75.2523C87.7473 75.4104 88.1597 75.4796 88.5719 75.4551C88.9806 75.4744 89.3885 75.4032 89.7686 75.2464C90.1487 75.0896 90.4922 74.8507 90.7763 74.5456L90.7874 74.5398Z" fill="url(#paint1_linear)"/>
<path d="M96.8789 60.8626H104.753V63.3148H96.8789V60.8626ZM98.5836 58.56C98.5836 57.0749 98.9168 55.9581 99.5942 55.1983C99.9866 54.7969 100.457 54.4867 100.974 54.2882C101.491 54.0897 102.043 54.0075 102.593 54.047H104.753V56.6835H102.748C102.539 56.6666 102.33 56.7017 102.136 56.7858C101.943 56.8699 101.772 57.0006 101.638 57.167C101.376 57.5681 101.249 58.0477 101.277 58.5313V77.8441H98.578L98.5836 58.56Z" fill="url(#paint2_linear)"/>
</g>
<defs>
<linearGradient id="paint0_linear" x1="0.679687" y1="65.9347" x2="187.121" y2="65.9347" gradientUnits="userSpaceOnUse">
<stop stop-color="#1B6CE5"/>
<stop offset="1" stop-color="#FF2E2E"/>
</linearGradient>
<linearGradient id="paint1_linear" x1="70.9753" y1="66.0722" x2="108.878" y2="66.0722" gradientUnits="userSpaceOnUse">
<stop stop-color="#458AEB"/>
<stop offset="0.41" stop-color="#6B59A2"/>
<stop offset="0.57" stop-color="#88488B"/>
<stop offset="1" stop-color="#FD2E2F"/>
</linearGradient>
<linearGradient id="paint2_linear" x1="70.9754" y1="66.0722" x2="108.878" y2="66.0722" gradientUnits="userSpaceOnUse">
<stop stop-color="#458AEB"/>
<stop offset="0.41" stop-color="#6C5AA4"/>
<stop offset="0.692708" stop-color="#8E4F92"/>
<stop offset="1" stop-color="#FD2E30"/>
</linearGradient>
<clipPath id="clip0">
<rect width="187" height="146" fill="white"/>
</clipPath>
</defs>
</svg>
