<svg xmlns="http://www.w3.org/2000/svg" viewBox="757.5000000000001 230.00000000000003 79.49999999999989 40.49999999999997"><path d="M834.8 264.1l1.7-3.8.5-4.8-6.3 1.1-5.8.3-3.8-16.8-2.3-5.5-1.5-4.6-22.2 4.3-37.6 7.6 2 10.4 4.8-4.9 2.5-.7 1.4-1.5 1.8-2.7 1.6.7 2.6-.2 2.6-2.1 2-1.5 2.1-.6 1.5 1.1 2.7 1.4 1.9 1.8 1.3 1.4 4.8 1.6-.6 2.9 5.8 2.1 2.1-2.6 3.7 2.5-2.1 3.3-.7 3.3-1.8 2.6v2.1l.3.8 2 1.3 3.4 1.1 4.3-.1 3.1 1 2.1.3 1-2.1-1.5-2.1v-1.8l-2.4-2.1-2.1-5.5 1.3-5.3-.2-2.1-1.3-1.3s1.5-1.6 1.5-2.3c0-.6.5-2.1.5-2.1l1.9-1.3 1.9-1.6.5 1-1.5 1.6-1.3 3.7.3 1.1 1.8.3.5 5.5-2.1 1 .3 3.6.5-.2 1.1-1.9 1.6 1.8-1.6 1.3-.3 3.4 2.6 3.4 3.9.5 1.6-.8 3.2 4.2 1 .4zm-14.5.2l1.1 2.5.2 1.8 1.1 1.9s.9-.9.9-1.2c0-.3-.7-3.1-.7-3.1l-.7-2.3z"></path></svg>