<svg xmlns="http://www.w3.org/2000/svg" viewBox="462.79999999999995 52.90000000000004 114.49999999999989 127.69999999999999"><path d="M464.6 66.79l-.6 3.91v10.27l1.6 5.03 1.9 3.32.5 9.93 1.8 13.45 1.8 7.3.4 6.4v5.3l-1.6 1.8-1.8 1.3v1.5l.9 1.7 4.1 3.5.7 3.2v35.9l60.3-.6 21.2-.7-.5-6-1.8-2.1-7.2-4.6-3.6-5.3-3.4-.9-2-2.8h-3.2l-3.5-3.8-.5-7 .1-3.9 1.5-3-.7-2.7-2.8-3.1 2.2-6.1 5.4-4 1.2-1.4-.2-8 .2-3 2.6-3 3.8-2.9 1.3-.2 4.5-5 1.8-.8 2.3-3.9 2.4-3.6 3.1-2.6 4.8-2 9.2-4.1 3.9-1.8.6-2.3-4.4.4-.7 1.1h-.6l-1.8-3.1-8.9.3-1 .8h-1l-.5-1.3-.8-1.8-2.6.5-3.2 3.2-1.6.8h-3.1l-2.6-1v-2.1l-1.3-.2-.5.5-2.6-1.3-.5-2.9-1.5.5-.5 1-2.4-.5-5.3-2.4-3.9-2.6h-2.9l-1.3-1-2.3.6-1.1 1.1-.3 1.3h-4.8v-2.1l-6.3-.3-.3-1.5h-4.8l-1.6-1.6-1.5-6.1-.8-5.5-1.9-.8-2.3-.5-.6.2-.3 8.2-30.1-.03z"></path></svg>