<svg xmlns="http://www.w3.org/2000/svg" viewBox="184.9 30.410000000000053 177.1 112.68999999999994"><path d="M361.1 70.77l-5.3 57.13-1.3 15.2-59.1-6.6-49-7.1-1.4 11.2-1.9-1.7-.4-2.5-1.3-1.9-3.3 1.5-.7 2.5-2.3.3-3.8-1.6-4.1.1-2.4.7-3.2-1.5-3 .2-2.1 1.9-.9-.6-.7-3.4.7-3.2-2.7-3.2-3.3-2.5-2.5-12.6-.1-5.3-1.6-.8-.6 1-4.5 3.2-1.2-.1-2.3-2.8-.2-2.8 7-17.15-.6-2.67-3.5-1.12-.4-.91-2.7-3.5-4.6-10.41-3.2-1.58-1.8-4.26 1.3-4.63-3.2-7.57 4.4-21.29L222 37.3l18.4 3.4 32.3 5.3 29.3 4 29.2 3.5 30.8 3.07z"></path></svg>