<svg xmlns="http://www.w3.org/2000/svg" viewBox="689.9 298.3999999999999 154.70000000000016 67.60000000000008"><path d="M786.7 357.7L774 350l-3.1-.8-16.6 2.1-1.6-3-2.8-2.2-16.7.5-7.4.9-9.2 4.5-6.8 2.7-6.5 1.2-13.4 1.4.1-4.1 1.7-1.3 2.7-.7.7-3.8 3.9-2.5 3.9-1.5 4.5-3.7 4.4-2.3.7-3.2 4.1-3.8.7 1 2.5.2 2.4-3.6 1.7-.4 2.6.3 1.8-4 2.5-2.4.5-1.8.1-3.5 4.4.1 38.5-5.6 57.5-12.3 2 4.8 3.6 6.5 2.4 2.4.6 2.3-2.4.2.8.6-.3 4.2-2.6 1.3-.6 2.1-1.3 2.9-3.7 1.6-2.4-.3-1.5-.2-1.6-1.3.3 1.3v1h1.9l.8 1.3-1.9 6.3h4.2l.6 1.6 2.3-2.3 1.3-.5-1.9 3.6-3.1 4.8H828l-1.1-.5-2.7.6-5.2 2.4-6.5 5.3-3.4 4.7-1.9 6.5-.5 2.4-4.7.5-5.1 1.5zm49.3-26.2l2.6-2.5 3.2-2.6 1.5-.6.2-2-.6-6.1-1.5-2.3-.6-1.9.7-.2 2.7 5.5.4 4.4-.2 3.4-3.4 1.5-2.8 2.4-1.1 1.2z"></path></svg>