<svg xmlns="http://www.w3.org/2000/svg" viewBox="744.5999999999999 106.60000000000001 126.9000000000002 97.60000000000001"><path d="M843.4 200l.5-2.7-.2-2.4-3-1.5-6.5-2-6-2.6-.6-.4-2.7-.3-2-1.5-2.1-5.9-3.3-.5-2.4-2.4-38.4 8.1-31.6 6-.5-6.5 1.6-1.2 1.3-1.1 1-1.6 1.8-1.1 1.9-1.8.5-1.6 2.1-2.7 1.1-1-.2-1-1.3-3.1-1.8-.2-1.9-6.1 2.9-1.8 4.4-1.5 4-1.3 3.2-.5 6.3-.2 1.9 1.3 1.6.2 2.1-1.3 2.6-1.1 5.2-.5 2.1-1.8 1.8-3.2 1.6-1.9h2.1l1.9-1.1.2-2.3-1.5-2.1-.3-1.5 1.1-2.1v-1.5h-1.8l-1.8-.8-.8-1.1-.2-2.6 5.8-5.5.6-.8 1.5-2.9 2.9-4.5 2.7-3.7 2.1-2.4 2.4-1.8 3.1-1.2 5.5-1.3 3.2.2 4.5-1.5 7.4-2.2.7 4.9 2.4 6.5.8 5-1 4.2 2.6 4.5.8 2-.9 3.2 3.7 1.7 2.7 10.2v5.8l-.6 10.9.8 5.4.7 3.6 1.5 7.3v8.1l-1.1 2.3 2.1 2.7.5.9-1.9 1.8.3 1.3 1.3-.3 1.5-1.3 2.3-2.6 1.1-.6 1.6.6 2.3.2 7.9-3.9 2.9-2.7 1.3-1.5 4.2 1.6-3.4 3.6-3.9 2.9-7.1 5.3-2.6 1-5.8 1.9-4 1.1-1-.4z"></path></svg>