<svg xmlns="http://www.w3.org/2000/svg" viewBox="357.89999999999986 321.8 149.3 78.90000000000009"><path d="M411.9 334.9l-1.8 24.3-.9 18 .2 1.6 4 3.6 1.7.9h.9l.9-2.1 1.5 1.9 1.6.1.3-.2.2-1.1 2.8 1.4-.4 3.5 3.8.5 2.5 1 4.2.6 2.3 1.6 2.5-1.7 3.5.7 2.2 3.1 1.2.1v2.3l2.1.7 2.5-2.1 1.8.6 2.7.1.7 2.3 4.4 1.8 1.7-.3 1.9-4.2h1.3l1.1 2.1 4.2.8 3.4 1.3 3 .8 1.6-.7.7-2.7h4.5l1.9.9 2.7-1.9h1.4l.6 1.4h3.6l2-1.8 2.3.6 1.7 2.2 3 1.7 3.4.9 1.9 1.2-.3-37.6-1.4-10.9-.1-8.6-1.5-6.6-.6-6.8.1-4.3-12.6.3-46.3-.5-44.7-2.1-41.5-1.8-.4 10.7z"></path></svg>