<svg xmlns="http://www.w3.org/2000/svg" viewBox="26.199999999999996 60.600000000000016 139.7 115.69999999999996"><path d="M67.44 158.9l28.24 7.2 27.52 6.5 17 3.7 8.8-35.1 1.2-4.4 2.4-5.5-.7-1.3-2.5.1-1.3-1.8.6-1.5.4-3.3 4.7-5.7 1.9-.9.9-.8.7-2.7.8-1.1 3.9-5.7 3.7-4 .2-3.26-3.4-2.49-1.2-4.55-13.1-3.83L132.9 85l-14.8.37-1.1-1.31-5.1 1.84-4.5-.48-2.4-1.58-1.3.54-4.68-.29-1.96-1.43-4.84-1.77-1.1-.07-4.45-1.27-1.76 1.52-6.26-.24-5.31-3.85.21-9.28-2.05-3.5-4.1-.6-.7-2.5-2.4-.5-5.8 2.1-2.3 6.5-3.2 10-3.2 6.5-5 14.1-6.5 13.6-8.1 12.6-1.9 2.9-.8 8.6-1.3 6 2.71 3.5z"></path></svg>