<svg xmlns="http://www.w3.org/2000/svg" viewBox="282.8 333.40000000000003 243.10000000000008 238.2"><path d="M282.8 425.6l37 3.6 29.3 1.9 7.4-97.7 54.4 2.4-1.7 23.3-1 18 .2 2 4.4 4.1 2 1.1h1.8l.5-1.2.7.9 2.4.2 1.1-.6v-.2l1 .5-.4 3.7 4.5.7 2.4.9 4.2.7 2.6 1.8 2.8-1.9 2.7.6 2.2 3.1.8.1v2.1l3.3 1.1 2.5-2.1 1.5.5 2.1.1.6 2.1 5.2 2 2.3-.5 1.9-4h.1l1.1 1.9 4.6.9 3.4 1.3 3.2 1 2.4-1.2.7-2.3h3.6l2.1 1 3-2h.4l.5 1.4h4.7l1.9-1.8 1.3.4 1.7 2.1 3.3 1.9 3.4 1 2.5 1.4 2.7 2 3.1-1.2 2.1.8.7 20 .7 9.5.6 4.1 2.6 4.4.9 4.5 4.2 5.9.3 3.1.6.8-.7 7.7-2.9 4.8 1.3 2.6-.5 2.4-.8 7.2-1.3 3 .3 4.2-5.6 1.6-9.9 4.5-1 1.9-2.6 1.9-2.1 1.5-1.3.8-5.7 5.3-2.7 2.1-5.3 3.2-5.7 2.4-6.3 3.4-1.8 1.5-5.8 3.6-3.4.6-3.9 5.5-4 .3-1 1.9 2.3 1.9-1.5 5.5-1.3 4.5-1.1 3.9-.8 4.5.8 2.4 1.8 7 1 6.1 1.8 2.7-1 1.5-3.1 1.9-5.7-3.9-5.5-1.1-1.3.5-3.2-.6-4.2-3.1-5.2-1.1-7.6-3.4-2.1-3.9-1.3-6.5-3.2-1.9-.6-2.3.6-.6.3-3.4-1.3-.6-.6-1 1.3-4.4-1.6-2.3-3.2-1.3-3.4-4.4-3.6-6.6-4.2-2.6.2-1.9-5.3-12.3-.8-4.2-1.8-1.9-.2-1.5-6-5.3-2.6-3.1v-1.1l-2.6-2.1-6.8-1.1-7.4-.6-3.1-2.3-4.5 1.8-3.6 1.5-2.3 3.2-1 3.7-4.4 6.1-2.4 2.4-2.6-1-1.8-1.1-1.9-.6-3.9-2.3v-.6l-1.8-1.9-5.2-2.1-7.4-7.8-2.3-4.7v-8.1l-3.2-6.5-.5-2.7-1.6-1-1.1-2.1-5-2.1-1.3-1.6-7.1-7.9-1.3-3.2-4.7-2.3-1.5-4.4-2.6-2.9-1.7-.5zm174.4 141.7l-.6-7.1-2.7-7.2-.6-7 1.5-8.2 3.3-6.9 3.5-5.4 3.2-3.6.6.2-4.8 6.6-4.4 6.5-2 6.6-.3 5.2.9 6.1 2.6 7.2.5 5.2.2 1.5z"></path></svg>