<svg xmlns="http://www.w3.org/2000/svg" viewBox="702.0000000000001 245.49999999999994 132.69999999999993 73.7000000000001"><path d="M834.7 265.2l-.2 2.8-2.9 3.8-.4 4.6.5 3.4-1.8 5-2.2 1.9-1.5-4.6.4-5.4 1.6-4.2.7-3.3-.1-1.7zm-60.3 44.6l-38.6 5.6-4.8-.1-2.2-.3-2.5 1.9-7.3.1-10.3 1.6-6.7.6 4.1-2.6 4.1-2.3v-2.1l5.7-7.3 4.1-3.7 2.2-2.5 3.6 4.3 3.8.9 2.7-1 2-1.5 2.4 1.2 4.6-1.3 1.7-4.4 2.4.7 3.2-2.3 1.6.4 2.8-3.2.2-2.7-.8-1.2 4.8-10.5 1.8-5.2.5-4.7.7-.2 1.1 1.7 1.5 1.2 3.9-.2 1.7-8.1 3-.6.8-2.6 2.8-2.2 1.1-2.1 1.8-4.3.1-4.6 3.6 1.4 6.6 3.1.3-5.2 3.4 1.2-.6 2.9 8.6 3.1 1.4 1.8-.8 3.3-1.3 1.3-.5 1.7.5 2.4 2 1.3 3.9 1.4 2.9 1 4.9.9 2.2 2.1 3.2.4.9 1.2-.4 4.7 1.4 1.1-.5 1.9 1.2.8-.2 1.4-2.7-.1.1 1.6 2.3 1.5.1 1.4 1.8 1.8.5 2.5-2.6 1.4 1.6 1.5 5.8-1.7 3.7 6.2z"></path></svg>